Ostrich_Walking_Kinematics
version=1
nRows=14
nColumns=28
inDegrees=no
endheader
time	/jointset/pelvis/pelvis_tilt/value	/jointset/pelvis/pelvis_list/value	/jointset/pelvis/pelvis_rotation/value	/jointset/pelvis/pelvis_tx/value	/jointset/pelvis/pelvis_ty/value	/jointset/pelvis/pelvis_tz/value	/jointset/R_hip/R_hip_extension/value	/jointset/R_hip/R_hip_abduction/value	/jointset/R_hip/R_hip_rotation/value	/jointset/knee/R_knee_angle/value	/jointset/knee/R_knee_varus/value	/jointset/knee/R_knee_rotation/value	/jointset/R_ankle/R_ankle_angle/value	/jointset/R_ankle/R_ankle_abduction/value	/jointset/R_ankle/R_ankle_rotation/value	/jointset/R_mtp/R_mtp_angle/value	/jointset/R_mtp/R_mtp_abduction/value	/jointset/R_mtp/R_mtp_rotation/value	/jointset/L_hip/L_hip_extension/value	/jointset/L_hip/L_hip_abduction/value	/jointset/L_hip/L_hip_rotation/value	/jointset/knee_0/L_knee_angle/value	/jointset/knee_0/L_knee_varus/value	/jointset/knee_0/L_knee_rotation/value	/jointset/L_ankle/L_ankle_angle/value	/jointset/L_ankle/L_ankle_abduction/value	/jointset/L_mtp/L_mtp_angle/value
      0.64100000	      0.17688179	     -0.01246165	     -0.01804028	      1.54998000	      1.03850043	     -0.92091200	      0.85075027	     -0.35443448	     -0.55539518	     -1.21891002	     -0.15983690	     -0.06795021	      0.32971713	      0.17743017	      0.12550314	     -0.62136863	      0.41358369	      0.13384441	      0.65195029	     -0.25934196	     -0.55038609	     -1.70824450	     -0.38333714	     -0.15843261	      0.76548047	      0.19606331	     -1.62603949
      0.64500000	      0.17399013	      0.03829252	     -0.02427055	      1.55470000	      1.05452960	     -0.92228000	      0.88386964	     -0.38931314	     -0.50574406	     -1.23848564	     -0.16394750	     -0.07034200	      0.33169982	      0.18315485	      0.12167039	     -0.62624159	      0.40908772	      0.13637305	      0.67017153	     -0.28016025	     -0.53249995	     -1.73695167	     -0.39112829	     -0.16013047	      0.80051271	      0.19875810	     -1.68483614
      0.64900000	      0.17431127	      0.00348368	     -0.02423843	      1.56142000	      1.05780340	     -0.91986400	      0.86479668	     -0.36552081	     -0.53498181	     -1.23566519	     -0.16434823	     -0.06297951	      0.32791595	      0.17815623	      0.12178489	     -0.61282350	      0.41003718	      0.13620410	      0.67757172	     -0.29537952	     -0.52026869	     -1.75217094	     -0.38837765	     -0.16199727	      0.83835145	      0.19853469	     -1.76715983
      0.65300000	      0.17623567	      0.00321141	     -0.02401782	      1.56670000	      1.04738643	     -0.91995000	      0.86057298	     -0.36637952	     -0.53262562	     -1.23903367	     -0.16427772	     -0.06099856	      0.33089697	      0.17728356	      0.11707389	     -0.61516573	      0.41955272	      0.13439943	      0.66725334	     -0.27375838	     -0.54747488	     -1.75922207	     -0.39237096	     -0.17251183	      0.86813724	      0.20526468	     -1.82523043
      0.65700000	      0.17620146	     -0.00446106	     -0.02226063	      1.57202000	      1.04770643	     -0.91942600	      0.85569304	     -0.36222563	     -0.53863653	     -1.24024144	     -0.16662623	     -0.06012031	      0.32971713	      0.17986665	      0.11485942	     -0.61366475	      0.42056501	      0.13396659	      0.61240113	     -0.15164628	     -0.60370939	     -1.64451903	     -0.37592996	     -0.16311079	      0.69759065	      0.18157498	     -1.55325228
      0.66100000	      0.17425891	     -0.02672797	     -0.02064515	      1.57784000	      1.04905222	     -0.91762400	      0.84688611	     -0.34742524	     -0.55867291	     -1.23912792	     -0.17007082	     -0.05774561	      0.32535381	      0.18218096	      0.11538337	     -0.60763289	      0.41357322	      0.13582327	      0.54584125	     -0.00546958	     -0.65021194	     -1.47587485	     -0.34873773	     -0.13872296	      0.42850626	      0.14063374	     -1.12553840
      0.66500000	      0.17407041	     -0.03604105	     -0.02387610	      1.58360000	      1.04946812	     -0.91632000	      0.84311620	     -0.34037411	     -0.56409041	     -1.24372162	     -0.16907528	     -0.05295503	      0.33068753	      0.17744763	      0.11180754	     -0.61529837	      0.41664500	      0.13879731	      0.56004125	     -0.05173156	     -0.61987114	     -1.50250159	     -0.35733871	     -0.13776931	      0.45675267	      0.14615038	     -1.19651047
      0.66900000	      0.17404249	      0.01520182	     -0.03090769	      1.58920000	      1.05057057	     -0.91632000	      0.86647569	     -0.37223684	     -0.50856102	     -1.25829861	     -0.16595603	     -0.04969476	      0.32905391	      0.17910918	      0.10801110	     -0.60301126	      0.40881196	      0.13918407	      0.56248471	     -0.05781368	     -0.60470772	     -1.50840779	     -0.35122308	     -0.14379977	      0.47188816	      0.14841791	     -1.23831459
      0.67300000	      0.17436537	     -0.02042035	     -0.02504722	      1.59372000	      1.05182414	     -0.91552200	      0.84820907	     -0.34782318	     -0.54185492	     -1.25376425	     -0.16983624	     -0.05739655	      0.32811143	      0.18159802	      0.11272418	     -0.60346853	      0.40972302	      0.14071857	      0.56422655	     -0.03615240	     -0.63135889	     -1.52019923	     -0.36074210	     -0.15253514	      0.50059534	      0.15432027	     -1.30676990
      0.67700000	      0.17598853	     -0.05158495	     -0.02001578	      1.59860000	      1.05258414	     -0.91499000	      0.83174015	     -0.33182898	     -0.57214685	     -1.25369444	     -0.17309582	     -0.05656438	      0.33014299	      0.18117216	      0.11028701	     -0.60846716	      0.41831702	      0.14016635	      0.56417070	     -0.02952713	     -0.63596656	     -1.52653129	     -0.36619451	     -0.16008125	      0.52686603	      0.16316560	     -1.37238730
      0.68100000	      0.17811434	     -0.03845658	     -0.02269521	      1.60386000	      1.05245744	     -0.91472400	      0.83693774	     -0.34608832	     -0.55864150	     -1.26508795	     -0.17445334	     -0.04553180	      0.33443301	      0.17985269	      0.09948865	     -0.61237320	      0.42527042	      0.13808696	      0.56185988	     -0.03798430	     -0.61825845	     -1.52885257	     -0.36492042	     -0.16523276	      0.54826377	      0.17169537	     -1.42677525
      0.68500000	      0.17819812	      0.00731293	     -0.03312809	      1.60810000	      1.05350241	     -0.91366000	      0.86011571	     -0.36957347	     -0.51157346	     -1.27836641	     -0.17896606	     -0.04046197	      0.33726742	      0.18542378	      0.09356710	     -0.61212188	      0.41299726	      0.13883396	      0.55747562	     -0.01883734	     -0.64154813	     -1.54140498	     -0.37130135	     -0.16947322	      0.57592375	      0.17408438	     -1.48263975
      0.68900000	      0.17805849	     -0.02921332	     -0.02257095	      1.61410000	      1.05569850	     -0.91460400	      0.83597431	     -0.35016541	     -0.54511170	     -1.26958391	     -0.17361000	     -0.04962564	      0.33183596	      0.18235200	      0.10172826	     -0.60717910	      0.41953177	      0.14034332	      0.55377552	     -0.00188866	     -0.65722816	     -1.54375070	     -0.37201344	     -0.17364665	      0.60060968	      0.18078225	     -1.53978881
      0.69300000	      0.17824350	     -0.02462660	     -0.02532787	      1.61896000	      1.05547910	     -0.91312400	      0.83889250	     -0.35085307	     -0.53657355	     -1.27675024	     -0.17570160	     -0.04866502	      0.33634240	      0.18440102	      0.10186160	     -0.60826819	      0.41734313	      0.13959388	      0.56465241	     -0.04905276	     -0.62540732	     -1.56401398	     -0.37879928	     -0.18185284	      0.62603913	      0.19277162	     -1.59988049
